<?xml version="1.0" encoding="UTF-8"?>
<svg version="1.1" xmlns="http://www.w3.org/2000/svg" width="32" height="32">
<path d="M0 0 C4.86725022 3.47753936 8.89164542 7.65915229 12.9140625 12.08203125 C13.8628125 11.33953125 14.8115625 10.59703125 15.7890625 9.83203125 C19.54430547 7.12119123 23.43715006 5.53850051 27.77734375 3.9765625 C30.07590728 3.17297976 30.07590728 3.17297976 31.9140625 1.08203125 C33.2340625 1.08203125 34.5540625 1.08203125 35.9140625 1.08203125 C38.49048685 6.23487996 37.69486142 15.22617434 36.1953125 20.7109375 C34.23947848 24.86708479 31.77822373 27.50592377 27.9140625 30.08203125 C28.83638672 30.84386719 28.83638672 30.84386719 29.77734375 31.62109375 C36.13145604 37.03273005 40.05841081 41.20191062 40.9296875 49.84765625 C40.90044359 54.0295352 39.91649221 58.03917423 38.9140625 62.08203125 C37.2640625 62.41203125 35.6140625 62.74203125 33.9140625 63.08203125 C32.80729167 61.35677083 31.70052083 59.63151042 30.59375 57.90625 C28.37645933 55.4981692 25.8445493 54.48499748 22.9140625 53.08203125 C22.91628311 53.90666367 22.91850372 54.73129608 22.92079163 55.58091736 C22.94079302 63.33601382 22.95603585 71.09109786 22.96587467 78.84621334 C22.97110286 82.83360325 22.97819934 86.82097192 22.98950195 90.80834961 C23.00033311 94.65328239 23.00633982 98.4981947 23.00893974 102.34314156 C23.01079358 103.81322108 23.01441341 105.28329943 23.01979256 106.75337029 C23.02700605 108.80557592 23.02805331 110.85769592 23.02758789 112.90991211 C23.0298085 114.08017441 23.03202911 115.25043671 23.03431702 116.4561615 C22.9140625 119.08203125 22.9140625 119.08203125 21.9140625 120.08203125 C16.89970136 120.08203125 14.62061595 119.20388499 11.0390625 115.64453125 C9.33002147 113.80903651 8.03556694 112.32504014 6.9140625 110.08203125 C6.87667969 110.79488281 6.83929688 111.50773437 6.80078125 112.2421875 C6.33917451 118.96716408 5.90544241 125.09065134 0.9140625 130.08203125 C-3.27810474 130.55661622 -5.38651079 130.53817911 -8.9609375 128.20703125 C-11.0859375 126.08203125 -11.0859375 126.08203125 -12.0859375 124.08203125 C-12.25609375 125.27957031 -12.42625 126.47710937 -12.6015625 127.7109375 C-14.93542057 143.6159914 -18.66154128 158.30591993 -25.0859375 173.08203125 C-25.42109375 173.86707031 -25.75625 174.65210938 -26.1015625 175.4609375 C-27.0859375 177.08203125 -27.0859375 177.08203125 -29.7109375 177.83203125 C-30.4946875 177.91453125 -31.2784375 177.99703125 -32.0859375 178.08203125 C-43.39453347 164.78351067 -47.0371297 144.02687694 -49.0859375 127.08203125 C-49.7459375 127.08203125 -50.4059375 127.08203125 -51.0859375 127.08203125 C-51.6428125 127.82453125 -51.6428125 127.82453125 -52.2109375 128.58203125 C-54.70265604 130.57540608 -56.93697878 130.48813071 -60.05078125 130.578125 C-63.11372436 129.83149587 -64.19134459 128.59087112 -66.0859375 126.08203125 C-66.84096237 123.4338097 -67.40304797 121.02613198 -67.8359375 118.33203125 C-67.96097656 117.63464844 -68.08601563 116.93726563 -68.21484375 116.21875 C-68.5193261 114.50896449 -68.80457685 112.7957734 -69.0859375 111.08203125 C-69.67375 111.85804688 -70.2615625 112.6340625 -70.8671875 113.43359375 C-73.75366442 116.87907148 -76.02221843 118.19530454 -80.0859375 120.08203125 C-82.3984375 120.01953125 -82.3984375 120.01953125 -84.0859375 119.08203125 C-86.52929739 115.41699142 -86.34445935 113.63311001 -86.3605957 109.26245117 C-86.36570663 108.57249054 -86.37081757 107.88252991 -86.37608337 107.17166138 C-86.39000451 104.88518632 -86.38901853 102.59901249 -86.38671875 100.3125 C-86.39060882 98.71364735 -86.39494413 97.11479573 -86.39970398 95.51594543 C-86.40717487 92.15586004 -86.40687195 88.79587963 -86.40161133 85.43579102 C-86.39586365 81.16718575 -86.4126281 76.89902106 -86.435956 72.6304884 C-86.4508358 69.32122862 -86.45154509 66.0120709 -86.44844627 62.70278358 C-86.44895397 61.13179984 -86.45408606 59.56080952 -86.46425819 57.98985863 C-86.57258054 38.89399546 -83.09899862 20.25930793 -69.0859375 6.08203125 C-48.45801655 -11.64508832 -23.1676824 -14.02897918 0 0 Z M-34.0859375 -2.91796875 C-34.0859375 -1.92796875 -34.0859375 -0.93796875 -34.0859375 0.08203125 C-33.0959375 -0.24796875 -32.1059375 -0.57796875 -31.0859375 -0.91796875 C-31.0859375 0.40203125 -31.0859375 1.72203125 -31.0859375 3.08203125 C-32.0759375 3.41203125 -33.0659375 3.74203125 -34.0859375 4.08203125 C-31.19406964 5.41507823 -31.19406964 5.41507823 -28.8984375 4.14453125 C-28.3003125 3.79390625 -27.7021875 3.44328125 -27.0859375 3.08203125 C-28.0759375 3.08203125 -29.0659375 3.08203125 -30.0859375 3.08203125 C-30.0859375 1.76203125 -30.0859375 0.44203125 -30.0859375 -0.91796875 C-28.7659375 -0.58796875 -27.4459375 -0.25796875 -26.0859375 0.08203125 C-26.0859375 -0.57796875 -26.0859375 -1.23796875 -26.0859375 -1.91796875 C-28.79473085 -3.27236543 -31.09527018 -2.98298326 -34.0859375 -2.91796875 Z M-21.0859375 2.08203125 C-21.0859375 3.07203125 -21.0859375 4.06203125 -21.0859375 5.08203125 C-27.42696191 7.11115906 -32.50460318 7.6305805 -39.0859375 6.08203125 C-37.7659375 7.40203125 -36.4459375 8.72203125 -35.0859375 10.08203125 C-35.7459375 10.74203125 -36.4059375 11.40203125 -37.0859375 12.08203125 C-35.48076653 11.99469549 -33.87672088 11.88650901 -32.2734375 11.76953125 C-31.38011719 11.71152344 -30.48679687 11.65351562 -29.56640625 11.59375 C-26.71773677 11.00607173 -26.01962845 10.14756476 -24.0859375 8.08203125 C-20.8984375 7.89453125 -20.8984375 7.89453125 -18.0859375 8.08203125 C-17.75375558 5.07943608 -17.75375558 5.07943608 -19.5859375 3.39453125 C-20.0809375 2.96140625 -20.5759375 2.52828125 -21.0859375 2.08203125 Z M-42.0859375 3.08203125 C-42.7459375 4.40203125 -43.4059375 5.72203125 -44.0859375 7.08203125 C-43.0959375 7.08203125 -42.1059375 7.08203125 -41.0859375 7.08203125 C-40.4259375 6.42203125 -39.7659375 5.76203125 -39.0859375 5.08203125 C-39.4159375 4.42203125 -39.7459375 3.76203125 -40.0859375 3.08203125 C-40.7459375 3.08203125 -41.4059375 3.08203125 -42.0859375 3.08203125 Z M-60.0859375 9.08203125 C-62.11738391 10.0164966 -64.12127337 11.01427901 -66.0859375 12.08203125 C-65.0959375 12.41203125 -64.1059375 12.74203125 -63.0859375 13.08203125 C-60.40917203 11.70953162 -60.40917203 11.70953162 -58.0859375 10.08203125 C-58.7459375 9.75203125 -59.4059375 9.42203125 -60.0859375 9.08203125 Z M-43.0859375 11.08203125 C-42.4259375 13.06203125 -41.7659375 15.04203125 -41.0859375 17.08203125 C-40.4259375 16.75203125 -39.7659375 16.42203125 -39.0859375 16.08203125 C-39.0859375 15.09203125 -39.0859375 14.10203125 -39.0859375 13.08203125 C-38.4259375 12.75203125 -37.7659375 12.42203125 -37.0859375 12.08203125 C-40.0559375 11.58703125 -40.0559375 11.58703125 -43.0859375 11.08203125 Z M-27.0859375 11.08203125 C-26.4259375 11.74203125 -25.7659375 12.40203125 -25.0859375 13.08203125 C-24.0959375 13.08203125 -23.1059375 13.08203125 -22.0859375 13.08203125 C-21.7559375 14.40203125 -21.4259375 15.72203125 -21.0859375 17.08203125 C-20.9003125 16.12296875 -20.9003125 16.12296875 -20.7109375 15.14453125 C-20.5046875 14.46390625 -20.2984375 13.78328125 -20.0859375 13.08203125 C-19.4259375 12.75203125 -18.7659375 12.42203125 -18.0859375 12.08203125 C-21.2823461 11.01656172 -23.74341026 11.00775287 -27.0859375 11.08203125 Z M19.9140625 15.08203125 C17.93981381 17.14748019 17.93981381 17.14748019 16.9140625 19.08203125 C17.2440625 19.74203125 17.5740625 20.40203125 17.9140625 21.08203125 C18.5740625 20.42203125 19.2340625 19.76203125 19.9140625 19.08203125 C22.5390625 18.45703125 22.5390625 18.45703125 24.9140625 18.08203125 C24.388125 18.97921875 24.388125 18.97921875 23.8515625 19.89453125 C22.58101552 22.19016339 22.58101552 22.19016339 23.9140625 25.08203125 C28.9163167 21.00124493 29.99340469 17.38922432 30.9140625 11.08203125 C26.62634983 11.08203125 23.52437436 12.85567227 19.9140625 15.08203125 Z M-64.8359375 17.95703125 C-65.52042969 18.22644531 -66.20492187 18.49585938 -66.91015625 18.7734375 C-70.68929864 20.10159366 -70.68929864 20.10159366 -73.0859375 23.08203125 C-71.8484375 22.66953125 -70.6109375 22.25703125 -69.3359375 21.83203125 C-63.5859375 19.91536458 -57.8359375 17.99869792 -52.0859375 16.08203125 C-52.0859375 15.75203125 -52.0859375 15.42203125 -52.0859375 15.08203125 C-56.80415441 14.66141501 -60.55884725 16.18521159 -64.8359375 17.95703125 Z M-10.0859375 15.08203125 C-6.6359337 16.89200861 -3.0844664 18.3422044 0.5390625 19.76953125 C1.68632812 20.22714844 2.83359375 20.68476562 4.015625 21.15625 C6.81549245 22.42221279 6.81549245 22.42221279 8.9140625 21.08203125 C-0.09192221 16.26402646 -0.09192221 16.26402646 -10.0859375 15.08203125 Z M-77.0859375 32.08203125 C-80.05557623 37.49101608 -79.28363363 44.00836689 -79.0859375 50.08203125 C-75.82443455 49.49818196 -72.95705659 48.76782595 -70.0859375 47.08203125 C-69.00243251 44.78447851 -68.6707365 42.85371714 -68.40234375 40.3359375 C-68.05351028 37.85103737 -67.41215603 36.20583574 -66.0859375 34.08203125 C-63.6484375 32.89453125 -63.6484375 32.89453125 -61.0859375 32.08203125 C-60.0959375 31.75203125 -59.1059375 31.42203125 -58.0859375 31.08203125 C-54.50315088 30.88298755 -51.80904735 30.78934393 -48.4609375 32.14453125 C-45.47651646 33.32259219 -44.15813166 32.91104954 -41.0859375 32.08203125 C-38.73718002 30.99546078 -38.73718002 30.99546078 -36.44140625 29.61328125 C-35.60029297 29.12472656 -34.75917969 28.63617188 -33.89257812 28.1328125 C-33.02826172 27.62105469 -32.16394531 27.10929687 -31.2734375 26.58203125 C-30.38978516 26.07027344 -29.50613281 25.55851562 -28.59570312 25.03125 C-25.30219291 23.11861509 -25.30219291 23.11861509 -22.0859375 21.08203125 C-22.0859375 20.75203125 -22.0859375 20.42203125 -22.0859375 20.08203125 C-39.67829535 17.21896125 -62.38722804 21.95679711 -77.0859375 32.08203125 Z M-23.2734375 27.70703125 C-24.23185547 28.25488281 -25.19027344 28.80273438 -26.17773438 29.3671875 C-28.02206435 30.43019455 -29.85489263 31.51348662 -31.67382812 32.61938477 C-33.12531017 33.4995294 -34.59410195 34.35312239 -36.09179688 35.15209961 C-37.95854395 36.12991527 -37.95854395 36.12991527 -40.0859375 38.08203125 C-40.66158544 41.11961088 -40.66158544 41.11961088 -40.2109375 44.39453125 C-39.95245421 50.45528426 -40.06144692 53.45386708 -44.0859375 58.08203125 C-48.85314548 61.15973212 -53.53223672 61.47674103 -59.0390625 60.59375 C-61.8498815 59.89104525 -63.84301745 58.91714766 -66.0859375 57.08203125 C-66.79035705 55.76825223 -67.4631911 54.43643486 -68.0859375 53.08203125 C-69.73290354 53.55729005 -71.37848478 54.03735016 -73.0234375 54.51953125 C-73.93996094 54.78636719 -74.85648438 55.05320313 -75.80078125 55.328125 C-78.0261868 55.87229176 -78.0261868 55.87229176 -79.0859375 57.08203125 C-79.17940665 58.73941568 -79.20338727 60.40077769 -79.19946289 62.06079102 C-79.19938736 63.12181534 -79.19931183 64.18283966 -79.19923401 65.27601624 C-79.19407272 66.43016525 -79.18891144 67.58431427 -79.18359375 68.7734375 C-79.1821788 69.94841293 -79.18076385 71.12338837 -79.17930603 72.33396912 C-79.17368742 76.10418189 -79.16113176 79.87433629 -79.1484375 83.64453125 C-79.1434249 86.19335852 -79.13886158 88.74218672 -79.13476562 91.29101562 C-79.12371194 97.55470758 -79.10695571 103.81836524 -79.0859375 110.08203125 C-74.23583532 107.79464412 -72.38839418 104.87881599 -70.0859375 100.08203125 C-68.88518455 96.45594794 -67.92807776 92.80661908 -67.0859375 89.08203125 C-64.6109375 88.58703125 -64.6109375 88.58703125 -62.0859375 88.08203125 C-62.09753906 88.80003906 -62.10914062 89.51804687 -62.12109375 90.2578125 C-62.18211475 97.25779244 -61.99952988 104.2164954 -61.6484375 111.20703125 C-61.60920166 112.03630127 -61.56996582 112.86557129 -61.52954102 113.7199707 C-61.48756592 114.50202881 -61.44559082 115.28408691 -61.40234375 116.08984375 C-61.36568604 116.7873877 -61.32902832 117.48493164 -61.29125977 118.20361328 C-61.12826029 120.30718398 -61.12826029 120.30718398 -60.0859375 123.08203125 C-57.67716493 122.96861591 -57.67716493 122.96861591 -55.0859375 122.08203125 C-51.92382376 117.97128339 -51.21339386 113.75278901 -50.3984375 108.76953125 C-50.20411133 107.65868164 -50.20411133 107.65868164 -50.00585938 106.52539062 C-49.6900669 104.71250791 -49.38673167 102.89746274 -49.0859375 101.08203125 C-47.4359375 101.41203125 -45.7859375 101.74203125 -44.0859375 102.08203125 C-44.06015625 103.17515625 -44.034375 104.26828125 -44.0078125 105.39453125 C-43.14886462 138.65214786 -43.14886462 138.65214786 -30.0859375 168.08203125 C-21.71064816 146.27836133 -18.35542463 124.33369034 -17.0859375 101.08203125 C-14.6109375 100.58703125 -14.6109375 100.58703125 -12.0859375 100.08203125 C-12.08207031 101.06429687 -12.08207031 101.06429687 -12.078125 102.06640625 C-11.73381314 110.19216615 -9.08514141 116.07425192 -5.0859375 123.08203125 C-4.0959375 123.08203125 -3.1059375 123.08203125 -2.0859375 123.08203125 C-0.92191023 119.58994944 -0.87475242 116.69055353 -0.76953125 113.0078125 C-0.7383596 111.98206367 -0.7383596 111.98206367 -0.70655823 110.93559265 C-0.64127596 108.75533915 -0.58227733 106.5749672 -0.5234375 104.39453125 C-0.48023197 102.91470139 -0.43661703 101.43488342 -0.39257812 99.95507812 C-0.28561667 96.33085503 -0.18428927 92.70649936 -0.0859375 89.08203125 C1.5640625 89.08203125 3.2140625 89.08203125 4.9140625 89.08203125 C5.30078125 90.09523438 5.6875 91.1084375 6.0859375 92.15234375 C6.61160218 93.50405292 7.13766513 94.85560725 7.6640625 96.20703125 C7.91671875 96.8721875 8.169375 97.53734375 8.4296875 98.22265625 C10.14288696 102.59131487 12.05151273 106.3467529 14.9140625 110.08203125 C15.5740625 110.08203125 16.2340625 110.08203125 16.9140625 110.08203125 C16.85283024 102.06707051 16.77570963 94.05248687 16.67834759 86.03789139 C16.63363569 82.31629861 16.5943817 78.5948155 16.56762695 74.87304688 C16.54160164 71.28074512 16.50120558 67.68886522 16.45087624 64.09682465 C16.43420212 62.72696941 16.42269119 61.35704119 16.41644859 59.98709869 C16.40681441 58.06712781 16.37705628 56.14728992 16.34643555 54.22753906 C16.33533249 53.13499817 16.32422943 52.04245728 16.31278992 50.91680908 C15.86717541 47.74868452 14.96050485 46.4735156 12.9140625 44.08203125 C12.7284375 43.03015625 12.7284375 43.03015625 12.5390625 41.95703125 C12.2296875 41.02890625 12.2296875 41.02890625 11.9140625 40.08203125 C11.1096875 39.87578125 10.3053125 39.66953125 9.4765625 39.45703125 C8.6309375 39.00328125 7.7853125 38.54953125 6.9140625 38.08203125 C6.421875 35.87890625 6.421875 35.87890625 6.1015625 33.20703125 C5.57850415 29.46944898 5.57850415 29.46944898 3.3359375 26.60546875 C1.1774224 25.49221884 -0.74015639 24.74099877 -3.0859375 24.08203125 C-3.71008545 23.8401709 -4.3342334 23.59831055 -4.97729492 23.34912109 C-12.39951481 20.93111979 -16.89169392 23.85800142 -23.2734375 27.70703125 Z M12.9140625 26.08203125 C12.2540625 26.74203125 11.5940625 27.40203125 10.9140625 28.08203125 C11.23447647 30.68483693 11.23447647 30.68483693 11.9140625 33.08203125 C13.57020907 33.46421892 15.23863274 33.79598227 16.9140625 34.08203125 C18.21039871 33.0155801 18.21039871 33.0155801 17.9765625 30.51953125 C17.9559375 29.71515625 17.9353125 28.91078125 17.9140625 28.08203125 C15.4390625 27.09203125 15.4390625 27.09203125 12.9140625 26.08203125 Z M25.9140625 38.08203125 C26.9040625 40.39203125 27.8940625 42.70203125 28.9140625 45.08203125 C27.64197628 44.45958526 26.37144368 43.83396358 25.1015625 43.20703125 C24.39386719 42.85898438 23.68617188 42.5109375 22.95703125 42.15234375 C20.9140625 41.08203125 20.9140625 41.08203125 17.9140625 39.08203125 C20.33547804 44.48365052 23.20579067 46.42078351 28.6015625 48.76953125 C29.59542969 49.20652344 30.58929688 49.64351562 31.61328125 50.09375 C32.37253906 50.41988281 33.13179687 50.74601562 33.9140625 51.08203125 C33.54665122 44.95850987 32.12754814 42.29551689 27.9140625 38.08203125 C27.2540625 38.08203125 26.5940625 38.08203125 25.9140625 38.08203125 Z " fill="#233138" transform="translate(159.0859375,40.91796875)"/>
<path d="M0 0 C3.50252011 2.04313673 5.77361702 4.09787233 7 8 C7.45778685 13.03565533 7.0454675 15.93937667 4 20 C1.71369108 22.72211561 0.15213008 23.47774644 -3.375 23.875 C-8.39636012 24.28257793 -10.79768703 22.86978552 -14.578125 19.66015625 C-17.18243829 16.61940584 -17.11265084 12.87651409 -17 9 C-13.96580771 0.37650613 -8.53112892 -1.25823781 0 0 Z " fill="#1C2B33" transform="translate(151,76)"/>
<path d="M0 0 C2.32158478 0.43529715 4.59068271 0.86210633 6.83203125 1.6171875 C11.75248776 3.18940437 14.49845309 2.92121841 19.140625 0.62890625 C21.44922718 -0.15194449 22.72750272 0.23076973 25 1 C24.4375 3.3125 24.4375 3.3125 23 6 C18.24836048 8.70191267 14.42120581 9.65428346 9 9 C5.89912281 7.85391579 2.94618066 6.49647271 0 5 C0 3.35 0 1.7 0 0 Z " fill="#293B43" transform="translate(116,114)"/>
<path d="M0 0 C1.98 0 3.96 0 6 0 C6 0.66 6 1.32 6 2 C7.32 2.33 8.64 2.66 10 3 C10.33 4.65 10.66 6.3 11 8 C6.86017278 7.12426732 4.52039356 6.54708041 1.5625 3.4375 C0 1 0 1 0 0 Z " fill="#1E262C" transform="translate(177,78)"/>
<path d="M0 0 C0.99 0 1.98 0 3 0 C2.67 1.98 2.34 3.96 2 6 C0.68 5.67 -0.64 5.34 -2 5 C-1.125 1.125 -1.125 1.125 0 0 Z M-5 6 C-2.525 6.495 -2.525 6.495 0 7 C-0.99 7.495 -0.99 7.495 -2 8 C-2.99 7.34 -3.98 6.68 -5 6 Z " fill="#384353" transform="translate(125,40)"/>
<path d="M0 0 C1.65 0 3.3 0 5 0 C4.67 2.64 4.34 5.28 4 8 C3.34 8 2.68 8 2 8 C0.3125 5.6875 0.3125 5.6875 -1 3 C-0.67 2.01 -0.34 1.02 0 0 Z " fill="#344144" transform="translate(179,59)"/>
<path d="M0 0 C0.33 0.66 0.66 1.32 1 2 C-1.70879335 3.35439668 -4.00933268 3.06501451 -7 3 C-7.33 2.01 -7.66 1.02 -8 0 C-4.97878489 -0.97110486 -2.99536737 -1.13617383 0 0 Z " fill="#283940" transform="translate(132,46)"/>
<path d="M0 0 C1.65 0.33 3.3 0.66 5 1 C5 1.99 5 2.98 5 4 C3.02 4.33 1.04 4.66 -1 5 C-0.34 4.67 0.32 4.34 1 4 C0.67 2.68 0.34 1.36 0 0 Z " fill="#2A3843" transform="translate(119,48)"/>
<path d="M0 0 C0.66 0.33 1.32 0.66 2 1 C-0.31 3.31 -2.62 5.62 -5 8 C-5.33 7.34 -5.66 6.68 -6 6 C-4 4 -2 2 0 0 Z " fill="#3E4D52" transform="translate(141,76)"/>
<path d="M0 0 C2.625 1.4375 2.625 1.4375 5 3 C4.67 3.66 4.34 4.32 4 5 C-0.875 3.25 -0.875 3.25 -2 1 C-1.34 0.67 -0.68 0.34 0 0 Z " fill="#101C21" transform="translate(165,57)"/>
<path d="M0 0 C1.32 0.33 2.64 0.66 4 1 C4 1.66 4 2.32 4 3 C4.66 3.33 5.32 3.66 6 4 C4.02 4.33 2.04 4.66 0 5 C0 3.33333333 0 1.66666667 0 0 Z " fill="#28353F" transform="translate(93,54)"/>
<path d="" fill="#C7CECE" transform="translate(0,0)"/>
</svg>
